<?xml version="1.0" encoding="UTF-8" standalone="no"?><svg xmlns="http://www.w3.org/2000/svg" xmlns:xlink="http://www.w3.org/1999/xlink" fill="#000000" height="27.3" preserveAspectRatio="xMidYMid meet" version="1" viewBox="-0.1 1.4 500.2 27.3" width="500.2" zoomAndPan="magnify"><g id="change1_1"><path d="M500,14.6c0.1,2-0.2,4-1,5.9c-1.5,3.7-4.8,6.6-8.6,7.7c-0.4,0.1-0.9,0.2-1.4,0.3c-0.5,0.1-1.1,0.2-1.5,0.2 h-0.7h-0.2h-0.1h-0.1H486c-0.4-0.1-0.9-0.1-1.4-0.2c-1.9-0.3-3.7-1.1-5.2-2.3s-2.6-2.7-3.4-4.3c-0.4-0.8-0.7-1.6-0.9-2.5 c-0.1-0.4-0.2-0.9-0.2-1.3c-0.1-0.4-0.1-0.8-0.1-1.2c0-1.8,0.5-3.4,1.3-4.8c0.8-1.3,2-2.5,3.4-3.1c0.3-0.1,0.7-0.3,1-0.4 c0.3-0.2,0.7-0.2,1-0.3c0.7-0.1,1.4-0.2,2-0.2c1.3,0,2.7,0.4,3.6,1.3c0.9,0.9,1.4,2,1.5,3c0.1,1-0.1,1.9-0.5,2.7 c-0.3,0.8-0.9,1.3-1.4,1.7c-0.3,0.1-0.6,0.3-0.8,0.4c-0.1,0-0.3,0.1-0.4,0.1c-0.4,0.1-0.8,0.2-1.2,0.2H484c-1.9-0.1-3.5-1.8-3.5-3.8 c0-2.2,1.8-3.9,3.9-3.9c1.8,0,3.3,1.2,3.7,2.9v-0.2c-0.2-0.9-0.6-1.8-1.4-2.4c-0.8-0.6-1.9-0.9-3-0.8c-0.7,0.1-1.2,0.1-1.8,0.3 c-0.3,0.1-0.6,0.2-0.9,0.3s-0.6,0.2-0.9,0.4c-1.1,0.6-2.1,1.5-2.7,2.7c-0.3,0.6-0.5,1.2-0.7,1.9c-0.1,0.7-0.2,1.5-0.2,2.1 c0,0.3,0,0.8,0.1,1.1c0,0.3,0.1,0.6,0.2,1c0.2,0.7,0.5,1.4,0.8,2.1c0.7,1.3,1.7,2.5,2.9,3.5c1.2,1,2.7,1.6,4.3,1.8 c0.4,0.1,0.8,0.1,1.2,0.1h0.3h0.1h0.2h0.7c0.5-0.1,0.8-0.1,1.2-0.2l1.2-0.3c3.2-0.9,5.9-3.3,7.2-6.4c0.7-1.6,1-3.3,0.9-4.9v-0.7 c0-0.2-0.1-0.4-0.1-0.6l-0.1-0.6l-0.2-0.6c-0.2-0.8-0.5-1.6-0.9-2.3c-1.5-3-4.2-5.1-7.3-5.9c-0.7-0.2-1.5-0.3-2.3-0.3 c-0.8-0.1-1.7-0.1-2.5-0.1c-1-0.1-2-0.1-2.9-0.1H292.3h-84.7H18.5c-0.9,0-1.9,0-2.9,0.1c-0.8,0-1.7,0-2.5,0.1 c-0.8,0-1.6,0.1-2.3,0.3C7.7,4.9,5,6.9,3.5,9.9c-0.4,0.7-0.7,1.5-0.9,2.3l-0.2,0.6l-0.1,0.6c0,0.2-0.1,0.4-0.1,0.6v0.7 c-0.1,1.6,0.2,3.3,0.9,4.9c1.3,3.1,4,5.5,7.2,6.4l1.2,0.3c0.4,0.1,0.7,0.1,1.2,0.2h0.7h0.2h0.1H14c0.4,0,0.8,0,1.2-0.1 c1.6-0.2,3.1-0.8,4.3-1.8c1.2-1,2.2-2.2,2.9-3.5c0.3-0.7,0.6-1.4,0.8-2.1c0.1-0.4,0.2-0.7,0.2-1c0.1-0.3,0.1-0.8,0.1-1.1 c0-0.6-0.1-1.4-0.2-2.1c-0.2-0.7-0.4-1.3-0.7-1.9c-0.6-1.2-1.6-2.1-2.7-2.7c-0.3-0.2-0.6-0.3-0.9-0.4s-0.6-0.2-0.9-0.3 c-0.6-0.2-1.1-0.2-1.8-0.3c-1.1-0.1-2.2,0.2-3,0.8c-0.8,0.6-1.2,1.5-1.4,2.4v0.2c0.4-1.7,1.9-2.9,3.7-2.9c2.1,0,3.9,1.7,3.9,3.9 c0,2-1.6,3.7-3.5,3.8h-0.3c-0.4,0-0.8-0.1-1.2-0.2c-0.1,0-0.3-0.1-0.4-0.1c-0.2-0.1-0.5-0.3-0.8-0.4c-0.5-0.4-1.1-0.9-1.4-1.7 c-0.4-0.8-0.6-1.7-0.5-2.7c0.1-1,0.6-2.1,1.5-3c0.9-0.9,2.3-1.3,3.6-1.3c0.6,0,1.3,0.1,2,0.2c0.3,0.1,0.7,0.1,1,0.3 c0.3,0.1,0.7,0.3,1,0.4c1.4,0.6,2.6,1.8,3.4,3.1c0.8,1.4,1.3,3,1.3,4.8c0,0.4,0,0.8-0.1,1.2c0,0.4-0.1,0.9-0.2,1.3 c-0.2,0.9-0.5,1.7-0.9,2.5c-0.8,1.6-1.9,3.1-3.4,4.3s-3.3,2-5.2,2.3c-0.5,0.1-1,0.1-1.4,0.2h-0.4h-0.1h-0.1h-0.2h-0.7 c-0.4,0-1-0.1-1.5-0.2c-0.5-0.1-1-0.2-1.4-0.3c-3.8-1.1-7.1-4-8.6-7.7c-0.8-1.9-1.1-3.9-1-5.9l0.1-0.6h0c0-0.2,0.1-0.5,0.1-0.8 l0.1-0.8l0.2-0.7c0.2-1,0.6-1.9,1.1-2.8c1.8-3.5,5.2-6,8.8-6.8c0.9-0.2,1.8-0.3,2.7-0.4h1.5V1.4h193h84.7h193v0.2h1.5 c0.9,0.1,1.8,0.2,2.7,0.4c3.6,0.8,7,3.3,8.8,6.8c0.5,0.9,0.9,1.8,1.1,2.8l0.2,0.7l0.1,0.8c0,0.3,0.1,0.6,0.1,0.8h0L500,14.6z" fill="#8a663f"/></g></svg>