<?xml version="1.0" encoding="UTF-8" standalone="no"?><svg xmlns="http://www.w3.org/2000/svg" xmlns:xlink="http://www.w3.org/1999/xlink" data-name="Capa 1" fill="#4a2d16" height="603.8" preserveAspectRatio="xMidYMid meet" version="1" viewBox="-10.3 -11.2 473.6 603.8" width="473.6" zoomAndPan="magnify"><g id="change1_1"><circle cx="122.1" cy="117.05" r="5.02"/></g><g id="change1_2"><path d="M332.61,29H332a18.49,18.49,0,0,0,0-8.24c-1.74-7.52-7.7-13-16-14.65-13.62-2.74-25.34,5.74-34.87,25.19a55.74,55.74,0,0,1-11.7,16.05c-.34.32-.68.59-1,.9a26.39,26.39,0,0,0,3-6.89c.09-.23,8.17-22.93-8.27-32.75-8.37-5-17.64-6-25.45-2.65a20.15,20.15,0,0,0-12.05,14c-1.53,6.55-.37,12.63,3.27,17.11a15.26,15.26,0,0,0,11.83,5.8c4.66.62,13.31-.19,15.31-7.19a4.58,4.58,0,0,0,.37-1.81A4.65,4.65,0,1,0,251,38.41c-3.66,2.56-9.58,1.81-9.92,1.76h-.22a12.58,12.58,0,0,1-9.8-4.81c-3.1-3.82-4.07-9.07-2.74-14.8A17.51,17.51,0,0,1,238.79,8.46c7-3,15.4-2.07,23,2.48,14.52,8.69,7.21,29.31,7.1,29.62-3.59,12.63-14.72,18.4-33.08,17.16a52.65,52.65,0,0,1-22.47-7.07h0l-.23-.12c-6.78-3.83-13.44-9-20.48-15.09-53.71-46.6-86.64-29-98.3-19.21-17.06,14.27-23.67,39.45-14.43,55a60,60,0,0,0,4.83,7,58.6,58.6,0,0,0-10.5-8.63c-15.18-9.82-40.59-4.17-55.49,12.35-10.18,11.28-29.06,43.53,15.49,99,5.84,7.26,10.74,14.11,14.31,21a2.25,2.25,0,0,0,.11.24h0a52.66,52.66,0,0,1,6.22,22.72c.55,18.4-5.64,29.3-18.4,32.41-.31.09-21.2,6.63-29.33-8.22-4.26-7.78-4.85-16.2-1.61-23.09a17.5,17.5,0,0,1,12.47-10c5.78-1.12,11,.05,14.7,3.29a12.61,12.61,0,0,1,4.43,10v.22c0,.35.56,6.29-2.14,9.85a4.61,4.61,0,1,0-2.94,5c7.07-1.74,8.21-10.36,7.76-15a15.29,15.29,0,0,0-5.35-12c-4.34-3.8-10.37-5.19-17-3.91A20.15,20.15,0,0,0,3.13,224.79c-3.61,7.67-3,17,1.69,25.53,9.2,16.8,32.18,9.58,32.41,9.5a26.17,26.17,0,0,0,7-2.77c-.31.32-.6.65-.93,1a55.68,55.68,0,0,1-16.48,11.09C7,277.9-1.89,289.3.33,303c1.35,8.32,6.6,14.49,14,16.51a19.25,19.25,0,0,0,3.72.61V592.62h3.53V320.17c0-.05,0-.1,0-.15a15.21,15.21,0,0,0,9.87-5.16c3.68-4.45,4.62-9.77,2.54-14.22a10.76,10.76,0,0,0-9.7-6.34,8.37,8.37,0,0,0-6.54,2.43,7.29,7.29,0,0,0-1.77,3,7.88,7.88,0,0,0,0,2.82,4.64,4.64,0,1,0,6.27-5.35,8.65,8.65,0,0,1,2.06-.23,8.1,8.1,0,0,1,7.29,4.79c1.65,3.54.86,7.69-2.18,11.38s-8.84,5.25-14.32,3.76c-6.5-1.76-10.91-7-12.1-14.34-2-12.35,6.39-22.78,24.93-31a58.38,58.38,0,0,0,17.27-11.63c7.06-6.92,10.83-14,11.23-21.06h0a56.46,56.46,0,0,0,1.19-14.13A55.91,55.91,0,0,0,51.06,201h0c-.72-1.5-17.19-36.92,17.8-57.2,19.29-11.18,40.76-2.48,51.18,11.39,8.17,10.87,11.66,27.5-3,41.57-8.71,8.33-18.18,10.81-26.66,7s-14.14-13-13.8-22v0c.29-7.29,4.62-12.8,12.18-15.51,5.87-2.11,11-1.08,14.34,2.88s4.37,10.19,2.3,13.94a7.7,7.7,0,0,1-.57.84A4.65,4.65,0,1,0,100,188.3a2.17,2.17,0,0,0,.26,0,7.59,7.59,0,0,0,7.48-4c2.61-4.73,1.47-12.18-2.61-17-2.4-2.82-7.84-7.06-17.28-3.67-8.54,3.06-13.63,9.6-14,17.93v0c-.38,10,6.08,20.36,15.38,24.55,5.53,2.49,16.73,4.83,29.62-7.5,6.89-6.59,10.53-14.58,10.84-22.83.28-7.51-2.2-15.23-7.5-22.29-9-11.91-25.55-20.23-42.44-16.79A32.49,32.49,0,0,0,97.37,111.2c.08-.78.13-1.56.16-2.33.36-9.44-3.13-19-9.67-27.15,8.63,9,19.52,14.24,30.48,14.24.78,0,1.56,0,2.34-.08a32.46,32.46,0,0,0,26.19-16.61c-4.07,16.75,3.62,33.65,15.17,43,6.86,5.57,14.48,8.33,22,8.33,8.25,0,16.38-3.33,23.22-10,12.81-12.42,10.89-23.7,8.61-29.32C212,81.9,202,75.06,191.91,75.06h0c-8.34,0-15.06,4.85-18.45,13.27-3.73,9.31.29,14.91,3,17.41,4.63,4.26,12,5.68,16.86,3.24a7.56,7.56,0,0,0,4.3-7.31c0-.09,0-.18,0-.27a4.65,4.65,0,1,0-4.67,4.65,7.37,7.37,0,0,1-.86.54c-3.83,1.93-10,.66-13.84-2.82s-4.67-8.65-2.34-14.44c3-7.46,8.66-11.57,16-11.59h0c9,0,18,6.15,21.47,14.62,3.5,8.62.67,18-8,26.38-14.61,14.17-31.1,10-41.65,1.48-13.47-10.93-21.36-32.72-9.46-51.57,21.59-34.2,56.36-16.41,57.83-15.63v0a56,56,0,0,0,23.53,7.41,57.05,57.05,0,0,0,14.17-.65h0c7.06-.13,14.28-3.64,21.46-10.43a58.25,58.25,0,0,0,12.27-16.82c8.93-18.21,19.66-26.2,31.94-23.74,7.3,1.47,12.36,6.07,13.87,12.63,1.28,5.53-.45,11.23-4.3,14.17s-8,3.53-11.46,1.74a8.1,8.1,0,0,1-4.51-7.46,9.4,9.4,0,0,1,.31-2.05A4.64,4.64,0,1,0,315,21.74a7.88,7.88,0,0,0-2.81-.07,7.35,7.35,0,0,0-3.09,1.66c-1.69,1.42-2.59,3.59-2.67,6.44a10.75,10.75,0,0,0,6,9.93c4.38,2.25,9.73,1.51,14.31-2a14,14,0,0,0,4.11-5.14H463.33V29ZM94.7,110.91c-1.23,11.65-8.54,20.83-20.06,25.21-11.89,4.53-23.63,2-30.64-6.49-4.17-5.07-6-13.53-4.64-21.06a12.2,12.2,0,0,1,6.9-9,7.41,7.41,0,0,1,7.13.4,6.21,6.21,0,0,1,2.27,2.9A4.65,4.65,0,1,0,57.81,109a7.4,7.4,0,0,0,1-4.4,9.1,9.1,0,0,0-3.93-6.82,10.09,10.09,0,0,0-9.65-.63,14.87,14.87,0,0,0-8.49,11c-1.54,8.26.56,17.61,5.2,23.26,6.54,7.95,16.71,11.17,27.52,9-.63.32-1.27.67-1.89,1-24.87,14.42-25,36.54-22.3,49.72-2.77-4.13-5.8-8.12-8.91-12C-6.91,125.34,11,94.46,20.76,83.69c14.06-15.6,37.89-21,52-11.9C87.83,81.52,96.23,96.51,94.7,110.91ZM152,67.22c-.39.61-.76,1.23-1.11,1.85,2.53-10.72-.31-21-8-27.84-5.47-4.85-14.74-7.3-23.05-6.07a14.86,14.86,0,0,0-11.29,8.07,10.09,10.09,0,0,0,.26,9.67,9.13,9.13,0,0,0,6.67,4.18,7.43,7.43,0,0,0,4.44-.81,4.65,4.65,0,1,0-6.42-4.3,4.73,4.73,0,0,0,.42,1.92,6.27,6.27,0,0,1-2.81-2.38,7.4,7.4,0,0,1-.13-7.14,12.15,12.15,0,0,1,9.25-6.55c7.58-1.11,16,1.06,20.87,5.42,8.26,7.33,10.3,19.16,5.33,30.87-4.81,11.34-14.26,18.3-25.94,19.09-14.45,1-29.12-8-38.27-23.36C73.62,55.36,80,31.75,96.07,18.29,107.21,9,138.74-7.79,190.89,37.46c3.74,3.25,7.61,6.43,11.64,9.35C189.46,43.62,167.35,42.91,152,67.22Z"/></g></svg>