<?xml version="1.0" encoding="UTF-8" standalone="no"?><svg xmlns="http://www.w3.org/2000/svg" xmlns:xlink="http://www.w3.org/1999/xlink" fill="#4a2d16" height="875.3" preserveAspectRatio="xMidYMid meet" version="1" viewBox="75.2 62.3 849.7 875.3" width="849.7" zoomAndPan="magnify"><g><g><g id="change1_16"><path d="M114.59,602.62c-1.34,0-2.55-0.9-2.9-2.25c-17.11-66.38-16.94-136.51,0.49-202.81 c17.96-68.31,54.01-130.96,104.23-181.19c50.23-50.23,112.88-86.27,181.19-104.23c66.3-17.43,136.43-17.6,202.81-0.49 c1.6,0.41,2.57,2.05,2.16,3.65c-0.41,1.6-2.05,2.57-3.65,2.16C464,82.68,319.06,122.2,220.66,220.61 C122.25,319.02,82.72,463.96,117.5,598.87c0.41,1.6-0.55,3.24-2.16,3.65C115.09,602.59,114.84,602.62,114.59,602.62z" fill="inherit"/></g><g id="change1_10"><path d="M293.27,161.99c-0.69,0-1.38-0.24-1.95-0.72c-1.16-0.99-1.39-2.69-0.54-3.96c1.92-2.85,3.94-5.68,6.01-8.43 c13.5-17.96,29.81-33.53,48.46-46.29c36.35-24.87,82.34-39.18,129.5-40.29c1.46-0.03,2.76,1.01,3.02,2.46 c0.26,1.45-0.57,2.88-1.96,3.37c-49.39,17.3-97.29,39.54-142.34,66.1c-9.32,5.49-20.16,12.14-29.88,19.85c0,0,0,0,0,0 c-3.01,2.39-5.72,4.71-8.27,7.09C294.75,161.72,294.01,161.99,293.27,161.99z M454.12,69.67 c-38.58,4.17-75.42,17.32-105.47,37.88c-14.28,9.76-27.14,21.22-38.37,34.18c6.9-4.74,13.86-8.96,20.15-12.66 C369.8,105.86,411.32,85.93,454.12,69.67z" fill="inherit"/></g><g id="change1_35"><path d="M310.91,151.94c-1.04,0-2.06-0.55-2.61-1.52c-0.82-1.44-0.31-3.27,1.13-4.09c1.24-0.71,2.5-1.39,3.76-2.07 c0.04-0.02,0.07-0.04,0.11-0.06c22.52-12.07,47.98-20,73.65-22.95c43.77-5.03,91.12,3.78,133.33,24.8 c1.32,0.66,1.97,2.18,1.52,3.59c-0.44,1.41-1.84,2.28-3.31,2.06c-51.72-7.74-104.45-10.43-156.73-7.97 c-15,0.7-30.95,1.91-45.99,5.95c-1.13,0.61-2.26,1.23-3.38,1.86C311.92,151.82,311.41,151.94,310.91,151.94z M399.35,136.86 c33.16,0,66.36,2.03,99.23,6.08c-36.06-14.31-74.78-19.88-110.96-15.72c-16.97,1.95-33.85,6.14-49.79,12.31 c7.99-0.93,15.94-1.43,23.65-1.79C374.08,137.16,386.72,136.86,399.35,136.86z" fill="inherit"/></g><g id="change1_9"><circle cx="507.45" cy="79.66" fill="inherit" r="9"/></g><g id="change1_31"><circle cx="601.12" cy="114.17" fill="inherit" r="9"/></g><g id="change1_26"><circle cx="558.69" cy="143.87" fill="inherit" r="9"/></g><g id="change1_40"><circle cx="137.42" cy="664.14" fill="inherit" r="9"/></g><g id="change1_42"><circle cx="192.28" cy="752.37" fill="inherit" r="9"/></g><g id="change1_32"><circle cx="268.11" cy="823.41" fill="inherit" r="9"/></g><g id="change1_1"><path d="M327.98,143.37c-1.05,0-2.07-0.55-2.62-1.53c-0.81-1.45-0.29-3.27,1.15-4.08c69.76-39.09,181.93-61.54,183.06-61.76 c1.62-0.32,3.2,0.74,3.52,2.36c0.32,1.63-0.74,3.2-2.36,3.52c-1.12,0.22-112.37,22.49-181.29,61.11 C328.98,143.25,328.48,143.37,327.98,143.37z" fill="inherit"/></g><g id="change1_5"><path d="M150.5,311.01c-0.18,0-0.36-0.02-0.55-0.05c-1.5-0.28-2.55-1.64-2.45-3.16c0.24-3.43,0.57-6.89,0.99-10.3 c2.71-22.3,9.05-43.94,18.83-64.31c19.05-39.72,51.72-75.1,92-99.64c1.26-0.77,2.89-0.51,3.85,0.62c0.96,1.13,0.95,2.78-0.01,3.9 c-34.12,39.68-64.48,82.89-90.22,128.42c-5.33,9.41-11.39,20.59-15.95,32.13c0,0,0,0,0,0c-1.42,3.58-2.6,6.94-3.62,10.27 C152.98,310.17,151.8,311.01,150.5,311.01z M245.14,150.24c-31.33,22.91-56.66,52.71-72.4,85.54 c-7.49,15.59-12.89,31.95-16.14,48.79c3.6-7.55,7.53-14.69,11.12-21.04C190.21,223.74,216.2,185.71,245.14,150.24z" fill="inherit"/></g><g id="change1_2"><path d="M160.75,293.49c-0.52,0-1.04-0.13-1.52-0.41c-1.43-0.84-1.91-2.68-1.07-4.11c0.72-1.23,1.46-2.45,2.22-3.67 c0.02-0.04,0.04-0.07,0.07-0.11c13.46-21.71,31.55-41.32,52.31-56.7c35.39-26.24,80.8-42.29,127.87-45.19 c1.47-0.09,2.79,0.9,3.11,2.34c0.32,1.44-0.46,2.9-1.83,3.44c-48.66,19.15-95.67,43.2-139.72,71.46 c-12.64,8.11-25.85,17.13-36.86,28.15c-0.68,1.09-1.34,2.19-1.99,3.3C162.78,292.96,161.78,293.49,160.75,293.49z M320.29,191.46 c-38.39,5.63-74.7,20.18-103.96,41.87c-13.72,10.17-26.24,22.24-36.96,35.56c6.45-4.8,13.09-9.21,19.59-13.37 C237.44,230.82,278.17,209.32,320.29,191.46z" fill="inherit"/></g><g id="change1_37"><circle cx="296.32" cy="132.22" fill="inherit" r="9"/></g><g id="change1_28"><path d="M171.25,277.53c-0.52,0-1.05-0.14-1.53-0.42c-1.42-0.85-1.89-2.69-1.05-4.11c40.87-68.73,126.79-144.26,127.65-145.01 c1.25-1.09,3.14-0.96,4.23,0.28c1.09,1.25,0.96,3.14-0.28,4.23c-0.86,0.75-86.07,75.66-126.45,143.56 C173.27,277.01,172.27,277.53,171.25,277.53z" fill="inherit"/></g><g id="change1_25"><path d="M101.37,511.45c-1.12,0-2.18-0.63-2.7-1.68c-1.51-3.09-2.96-6.26-4.29-9.42c-8.8-20.67-14.14-42.58-15.85-65.11 c-3.36-43.92,7.24-90.9,29.85-132.29c0.71-1.3,2.25-1.88,3.64-1.39c1.39,0.5,2.21,1.93,1.94,3.38 c-9.71,51.43-14.4,104.02-13.92,156.33c0.09,10.82,0.44,23.53,2.25,35.8c0,0,0,0,0,0c0.56,3.81,1.22,7.31,2,10.71 c0.34,1.49-0.48,2.99-1.92,3.5C102.04,511.4,101.7,511.45,101.37,511.45z M104.44,324.5C88.76,360,81.73,398.48,84.51,434.78 c1.31,17.25,4.81,34.12,10.42,50.32c-0.65-8.34-0.83-16.49-0.89-23.78C93.62,415.62,97.12,369.69,104.44,324.5z" fill="inherit"/></g><g id="change1_6"><path d="M101.48,491.16c-0.01,0-0.01,0-0.02,0c-1.66-0.01-2.99-1.36-2.98-3.02c0.01-1.43,0.04-2.86,0.09-4.28 c0-0.04,0-0.08,0-0.12c0.81-25.54,6.67-51.56,16.95-75.26c17.53-40.42,48.83-77.03,88.14-103.07c1.23-0.82,2.87-0.61,3.87,0.47 c1,1.09,1.05,2.74,0.14,3.9c-32.56,40.92-61.25,85.24-85.27,131.75c-6.89,13.35-13.82,27.76-17.85,42.8 c-0.04,1.29-0.07,2.57-0.08,3.86C104.47,489.83,103.13,491.16,101.48,491.16z M190.13,322.63 c-30.43,24.07-54.61,54.82-69.1,88.24c-6.8,15.67-11.61,32.38-14.23,49.28c3.19-7.38,6.74-14.52,10.28-21.37 C138.06,398.13,162.59,359.15,190.13,322.63z" fill="inherit"/></g><g id="change1_11"><circle cx="139.75" cy="283.31" fill="inherit" r="9"/></g><g id="change1_36"><path d="M102.6,472.09c-0.01,0-0.03,0-0.04,0c-1.66-0.02-2.98-1.38-2.96-3.04c1.03-79.96,37.67-188.33,38.04-189.41 c0.53-1.57,2.24-2.41,3.81-1.87c1.57,0.53,2.41,2.24,1.87,3.81c-0.37,1.08-36.71,108.56-37.72,187.55 C105.57,470.77,104.23,472.09,102.6,472.09z" fill="inherit"/></g><g id="change1_27"><path d="M558.02,145.96c-0.38,0-0.76-0.07-1.13-0.22c-1.1-0.45-110.41-44.37-174.91-22.87c-1.57,0.52-3.27-0.33-3.79-1.9 c-0.52-1.57,0.33-3.27,1.9-3.79c28.04-9.34,66.74-8.3,115.01,3.11c35.77,8.45,63.79,19.79,64.06,19.9 c1.53,0.62,2.27,2.37,1.65,3.91C560.33,145.26,559.2,145.96,558.02,145.96z" fill="inherit"/></g><g id="change1_33"><circle cx="260.77" cy="246.29" fill="inherit" r="9"/></g><g id="change1_24"><path d="M145.94,320.84c-0.78,0-1.56-0.3-2.15-0.91c-1.16-1.19-1.13-3.09,0.06-4.24c45.8-44.61,90.22-63.76,107.2-69.92 c4.94-1.78,7.72-2.54,7.84-2.57c1.6-0.44,3.25,0.51,3.68,2.11c0.44,1.6-0.51,3.25-2.1,3.68c-0.03,0.01-2.69,0.74-7.37,2.43 c-16.6,6.03-60.09,24.78-105.05,68.58C147.45,320.56,146.69,320.84,145.94,320.84z" fill="inherit"/></g></g><g><g id="change1_29"><path d="M500.03,900.97c-33.79,0-67.58-4.23-100.45-12.71c-1.6-0.41-2.57-2.05-2.16-3.65c0.41-1.6,2.05-2.57,3.65-2.16 c32.37,8.34,65.34,12.41,98.08,12.41c103.73,0.01,205.39-40.78,280.18-115.57c98.41-98.41,137.93-243.35,103.16-378.26 c-0.41-1.6,0.55-3.24,2.16-3.65c1.61-0.41,3.24,0.55,3.65,2.16c17.11,66.38,16.94,136.51-0.49,202.81 c-17.96,68.31-54.01,130.96-104.23,181.19c-50.23,50.23-112.88,86.27-181.19,104.23C568.93,896.57,534.48,900.97,500.03,900.97z" fill="inherit"/></g><g id="change1_4"><path d="M525.18,937.6c-1.45,0-2.69-1.03-2.95-2.46c-0.26-1.45,0.57-2.88,1.96-3.37c49.39-17.3,97.29-39.54,142.34-66.1 c9.32-5.49,20.16-12.14,29.88-19.85c0,0,0,0,0,0c3.01-2.39,5.72-4.71,8.27-7.09c1.11-1.04,2.83-1.08,3.99-0.09 c1.16,0.99,1.39,2.69,0.54,3.96c-1.92,2.85-3.94,5.68-6.01,8.43c-13.5,17.96-29.81,33.53-48.46,46.29 c-36.35,24.87-82.34,39.18-129.5,40.29C525.22,937.6,525.2,937.6,525.18,937.6z M689.73,858.17c-6.9,4.74-13.86,8.96-20.15,12.66 c-39.37,23.21-80.9,43.14-123.69,59.4c38.58-4.17,75.42-17.32,105.47-37.88C665.64,882.59,678.5,871.13,689.73,858.17z" fill="inherit"/></g><g id="change1_21"><path d="M588.63,880.02c-36.56,0-74.44-9.02-108.9-26.18c-1.32-0.66-1.97-2.18-1.52-3.59s1.84-2.28,3.31-2.07 c51.72,7.74,104.45,10.43,156.73,7.97c15-0.7,30.95-1.91,45.99-5.95c1.13-0.61,2.26-1.23,3.38-1.86 c1.44-0.82,3.27-0.31,4.09,1.13c0.82,1.44,0.31,3.27-1.13,4.09c-1.24,0.71-2.49,1.39-3.75,2.07c-0.04,0.02-0.07,0.04-0.11,0.06 c-22.52,12.07-47.98,20-73.65,22.95C605.02,879.56,596.85,880.02,588.63,880.02z M501.41,856.96 c36.06,14.31,74.78,19.88,110.96,15.72c16.97-1.95,33.85-6.14,49.79-12.31c-7.99,0.93-15.94,1.43-23.65,1.79 C592.84,864.3,546.82,862.55,501.41,856.96z" fill="inherit"/></g><g id="change1_20"><circle cx="492.55" cy="920.24" fill="inherit" r="9"/></g><g id="change1_41"><circle cx="398.88" cy="885.73" fill="inherit" r="9"/></g><g id="change1_14"><circle cx="441.31" cy="856.04" fill="inherit" r="9"/></g><g id="change1_8"><circle cx="862.58" cy="335.77" fill="inherit" r="9"/></g><g id="change1_30"><circle cx="807.72" cy="247.53" fill="inherit" r="9"/></g><g id="change1_38"><circle cx="731.89" cy="176.5" fill="inherit" r="9"/></g><g id="change1_7"><path d="M489.84,923.97c-1.4,0-2.66-0.99-2.94-2.42c-0.32-1.63,0.74-3.2,2.36-3.52c1.12-0.22,112.37-22.49,181.29-61.11 c1.45-0.81,3.27-0.29,4.08,1.15c0.81,1.45,0.29,3.27-1.15,4.08c-69.76,39.09-181.93,61.54-183.06,61.76 C490.23,923.95,490.04,923.97,489.84,923.97z" fill="inherit"/></g><g id="change1_17"><path d="M739.12,866.8c-0.86,0-1.7-0.37-2.29-1.06c-0.96-1.13-0.95-2.78,0.01-3.9c34.12-39.68,64.48-82.89,90.22-128.42 c5.33-9.41,11.39-20.59,15.95-32.13c0,0,0,0,0,0c1.42-3.58,2.6-6.94,3.62-10.27c0.45-1.46,1.92-2.35,3.41-2.07 c1.5,0.28,2.55,1.64,2.45,3.16c-0.24,3.43-0.57,6.89-0.99,10.3c-2.71,22.3-9.05,43.94-18.83,64.31 c-19.05,39.72-51.72,75.1-92,99.64C740.19,866.66,739.65,866.8,739.12,866.8z M843.4,715.34c-3.6,7.55-7.53,14.69-11.12,21.04 c-22.49,39.79-48.49,77.81-77.42,113.29c31.33-22.91,56.66-52.71,72.4-85.54C834.75,748.53,840.16,732.17,843.4,715.34z" fill="inherit"/></g><g id="change1_34"><path d="M659.19,816.59c-1.4,0-2.62-0.97-2.93-2.35c-0.32-1.44,0.46-2.9,1.83-3.44c48.66-19.15,95.67-43.2,139.72-71.46 c12.64-8.11,25.85-17.13,36.86-28.15c0.68-1.09,1.34-2.19,1.99-3.3c0.84-1.43,2.68-1.91,4.11-1.07c1.43,0.84,1.91,2.68,1.07,4.11 c-0.72,1.23-1.46,2.45-2.22,3.67c-0.02,0.04-0.04,0.07-0.07,0.11c-13.46,21.71-31.55,41.32-52.31,56.7 c-35.39,26.24-80.8,42.29-127.87,45.19C659.31,816.59,659.25,816.59,659.19,816.59z M820.64,731.02 c-6.45,4.8-13.09,9.21-19.59,13.37c-38.49,24.7-79.22,46.2-121.34,64.06c38.39-5.63,74.7-20.18,103.96-41.87 C797.4,756.41,809.92,744.34,820.64,731.02z" fill="inherit"/></g><g id="change1_12"><circle cx="703.68" cy="867.68" fill="inherit" r="9"/></g><g id="change1_22"><path d="M701.7,872.66c-0.84,0-1.67-0.35-2.26-1.02c-1.09-1.25-0.96-3.14,0.28-4.23c0.86-0.75,86.07-75.66,126.45-143.56 c0.85-1.42,2.69-1.89,4.11-1.05c1.42,0.85,1.89,2.69,1.05,4.11c-40.87,68.73-126.79,144.26-127.65,145.01 C703.11,872.42,702.4,872.66,701.7,872.66z" fill="inherit"/></g><g id="change1_18"><path d="M888.99,698.52c-0.34,0-0.68-0.06-1.01-0.18c-1.39-0.5-2.21-1.93-1.94-3.38c9.71-51.43,14.4-104.02,13.92-156.33 c-0.09-10.82-0.44-23.53-2.25-35.8c0,0,0,0,0,0c-0.56-3.81-1.22-7.31-2-10.71c-0.34-1.49,0.48-2.99,1.92-3.5 c1.44-0.51,3.03,0.14,3.7,1.51c1.51,3.09,2.96,6.26,4.29,9.42c8.8,20.67,14.14,42.58,15.85,65.11 c3.36,43.92-7.24,90.9-29.85,132.29C891.08,697.94,890.06,698.52,888.99,698.52z M905.07,514.8c0.65,8.34,0.83,16.49,0.89,23.78 c0.41,45.7-3.09,91.63-10.4,136.82c15.68-35.5,22.71-73.98,19.93-110.28C914.18,547.87,910.68,531,905.07,514.8z" fill="inherit"/></g><g id="change1_13"><path d="M794.67,695c-0.82,0-1.63-0.33-2.21-0.97c-1-1.09-1.05-2.74-0.14-3.9c32.56-40.92,61.25-85.24,85.27-131.75 c6.89-13.35,13.82-27.76,17.85-42.8c0.04-1.29,0.07-2.57,0.08-3.86c0.01-1.65,1.35-2.98,3-2.98c0.01,0,0.01,0,0.02,0 c1.66,0.01,2.99,1.36,2.98,3.02c-0.01,1.43-0.04,2.86-0.09,4.28c0,0.04,0,0.08,0,0.12c-0.81,25.54-6.67,51.56-16.95,75.26 c-17.53,40.42-48.83,77.03-88.14,103.07C795.82,694.83,795.25,695,794.67,695z M893.2,539.76c-3.19,7.38-6.74,14.52-10.28,21.37 c-20.98,40.63-45.51,79.62-73.05,116.14c30.43-24.07,54.61-54.82,69.1-88.24C885.77,573.37,890.58,556.66,893.2,539.76z" fill="inherit"/></g><g id="change1_23"><circle cx="860.25" cy="716.6" fill="inherit" r="9"/></g><g id="change1_15"><path d="M859.52,722.3c-0.32,0-0.65-0.05-0.97-0.16c-1.57-0.53-2.41-2.24-1.87-3.81c0.37-1.08,36.71-108.56,37.72-187.55 c0.02-1.66,1.35-3,3.04-2.96c1.66,0.02,2.98,1.38,2.96,3.04c-1.03,79.96-37.67,188.33-38.04,189.41 C861.94,721.51,860.77,722.3,859.52,722.3z" fill="inherit"/></g><g id="change1_3"><path d="M575.69,889.04c-20.58,0-44.23-3.14-70.78-9.42c-35.77-8.45-63.79-19.79-64.06-19.9c-1.53-0.62-2.27-2.37-1.65-3.91 c0.63-1.54,2.38-2.27,3.91-1.65c1.1,0.45,110.41,44.37,174.91,22.87c1.57-0.52,3.27,0.33,3.79,1.9s-0.33,3.27-1.9,3.79 C607.3,886.93,592.52,889.04,575.69,889.04z" fill="inherit"/></g><g id="change1_39"><circle cx="739.23" cy="753.62" fill="inherit" r="9"/></g><g id="change1_19"><path d="M740.33,756.81c-1.32,0-2.53-0.88-2.89-2.21c-0.44-1.6,0.51-3.25,2.1-3.68c0.03-0.01,2.69-0.74,7.37-2.43 c16.6-6.03,60.09-24.78,105.05-68.58c1.19-1.16,3.09-1.13,4.24,0.06c1.16,1.19,1.13,3.09-0.06,4.24 c-45.8,44.61-90.22,63.76-107.2,69.92c-4.94,1.78-7.72,2.54-7.84,2.57C740.85,756.78,740.59,756.81,740.33,756.81z" fill="inherit"/></g></g></g></svg>